<svg width="570" height="365" viewBox="0 0 570 365" fill="none" xmlns="http://www.w3.org/2000/svg">
<g clip-path="url(#clip0_24_1357)">
<path d="M570 0V365H0V0H570Z" fill="#FEFEFE"/>
<path d="M570 0V365H152.01C157.23 358.915 163.994 352.663 172.485 346.272C199.641 325.763 232.727 317.366 260.245 298.152C282.46 282.64 297.687 257.466 301.111 230.579C304.132 206.978 298.481 183.238 296.894 159.498C295.321 135.758 298.926 109.539 316.269 93.2759C348.45 63.089 404.502 84.9216 442.529 62.5599C458.341 53.2587 469.448 36.383 471.773 18.1985C472.539 12.1694 472.399 6.09865 471.898 0H570Z" fill="#D55593"/>
<path d="M105.395 38.5134C105.395 71.9028 78.3365 98.9708 44.9586 98.9708C27.1004 98.9708 11.0517 91.2291 0 78.9065V0H91.5457C100.203 10.4568 105.395 23.8794 105.395 38.5134Z" fill="#ED6CA6"/>
<path d="M82.874 3.98222C82.874 10.4568 77.6266 15.6922 71.1542 15.6922C64.6957 15.6922 59.4482 10.4568 59.4482 3.98222C59.4482 2.58984 59.6849 1.23922 60.1442 0H82.1781C82.6374 1.23922 82.874 2.58984 82.874 3.98222Z" fill="#D55593"/>
<path d="M60.8945 71.215C60.8945 77.684 55.6512 82.9291 49.1844 82.9291C42.7162 82.9291 37.4729 77.684 37.4729 71.215C37.4729 64.7445 42.7162 59.4994 49.1844 59.4994C55.6512 59.4994 60.8945 64.7445 60.8945 71.215Z" fill="#D55593"/>
<path d="M12.4854 50.4879C12.4854 54.7207 9.04739 58.1599 4.80208 58.1599C2.97868 58.1599 1.30839 57.5194 0 56.4751V44.5006C1.30839 43.4424 2.97868 42.8019 4.80208 42.8019C9.04739 42.8019 12.4854 46.2411 12.4854 50.4879Z" fill="#D55593"/>
<path d="M45.2091 0C44.3322 1.39239 42.7733 2.31135 41.0195 2.31135C39.2518 2.31135 37.7067 1.39239 36.8298 0H45.2091Z" fill="#D55593"/>
<path d="M22.446 15.695C22.446 18.431 20.2286 20.6491 17.4935 20.6491C14.7571 20.6491 12.5411 18.431 12.5411 15.695C12.5411 12.9589 14.7571 10.7408 17.4935 10.7408C20.2286 10.7408 22.446 12.9589 22.446 15.695Z" fill="#D55593"/>
<path d="M88.9444 52.8034C88.9444 55.5394 86.7271 57.7575 83.992 57.7575C81.2569 57.7575 79.0396 55.5394 79.0396 52.8034C79.0396 50.0674 81.2569 47.8493 83.992 47.8493C86.7271 47.8493 88.9444 50.0674 88.9444 52.8034Z" fill="#D55593"/>
<path d="M570 80.7027V365H320.779C350.928 346.551 376.107 319.998 392.824 288.823C418.059 241.76 424.866 184.143 461.027 144.836C489.784 113.633 531.945 99.6948 570 80.7027Z" fill="#ED6CA6"/>
<path d="M570 275.372V365H429.515C441.304 314.791 495.7 283.183 543.554 276.068C552.142 274.787 561.273 274.314 570 275.372Z" fill="#D55593"/>
<path d="M512.403 342.762C509.693 342.762 507.101 343.244 504.699 344.132C502.817 320.627 483.173 302.131 459.185 302.131C451.389 302.131 444.045 304.09 437.62 307.539L433.983 267.182H402.741L399.484 303.345C397.049 302.432 394.412 301.928 391.656 301.928C379.382 301.928 369.425 311.882 369.425 324.167C369.425 325.696 369.582 327.184 369.869 328.627C355.936 330.371 343.956 338.391 336.844 349.783C332.784 345.458 327.031 342.762 320.641 342.762C308.359 342.762 298.403 352.715 298.403 365H534.64C534.64 352.715 524.682 342.762 512.403 342.762Z" fill="#FEFEFE"/>
<path d="M512.401 346.679C510.217 346.679 508.082 347.06 506.057 347.81L501.206 349.603L500.793 344.446C499.959 334.012 495.261 324.334 487.566 317.188C479.829 310.005 469.751 306.049 459.185 306.049C452.311 306.049 445.495 307.758 439.472 310.991L434.25 313.795L430.051 267.182H406.675L402.924 308.824L398.108 307.014C396.045 306.24 393.874 305.847 391.656 305.847C381.557 305.847 373.342 314.065 373.342 324.167C373.342 325.392 373.467 326.636 373.712 327.861L374.533 331.993L370.354 332.516C357.868 334.079 346.865 341.129 340.167 351.857L337.473 356.174L333.99 352.464C330.486 348.734 325.745 346.679 320.641 346.679C311.883 346.679 304.324 356.775 302.524 365H530.301C528.502 356.775 521.159 346.679 512.401 346.679Z" fill="#F3EDD8"/>
<path d="M510.77 365C505.886 357.208 497.223 352.028 487.35 352.028C487.077 352.028 486.803 352.042 486.527 352.049C487.063 349.901 487.35 347.652 487.35 345.334C487.35 330.064 474.977 317.688 459.708 317.688C444.618 317.688 432.364 329.784 432.083 344.812L427.224 267.182H410.078L405.833 322.573C405.461 322.55 405.09 322.534 404.714 322.534C394.894 322.534 386.929 330.502 386.929 340.332C386.929 343.472 387.745 346.419 389.169 348.978C385.18 346.666 380.543 345.334 375.601 345.334C370.76 345.334 366.219 346.608 362.284 348.833C360.753 346.937 358.412 345.721 355.787 345.721C351.176 345.721 347.438 349.458 347.438 354.072C347.438 356.923 348.868 359.436 351.046 360.943C350.436 362.243 349.926 363.598 349.525 365H510.77Z" fill="#FEFEFE"/>
<path d="M472.38 354.288C472.38 358.56 470.499 362.393 467.515 365H448.765C445.781 362.393 443.9 358.56 443.9 354.288C443.9 346.419 450.279 340.044 458.141 340.044C466.001 340.044 472.38 346.419 472.38 354.288Z" fill="#F3EDD8"/>
<path d="M413.31 350.618C413.31 354.014 410.557 356.767 407.163 356.767C403.767 356.767 401.017 354.014 401.017 350.618C401.017 347.223 403.767 344.469 407.163 344.469C410.557 344.469 413.31 347.223 413.31 350.618Z" fill="#F3EDD8"/>
<path d="M407.163 334.558C407.163 336.257 405.785 337.633 404.09 337.633C402.392 337.633 401.017 336.257 401.017 334.558C401.017 332.86 402.392 331.484 404.09 331.484C405.785 331.484 407.163 332.86 407.163 334.558Z" fill="#F3EDD8"/>
<path d="M462.169 329.658C462.169 331.357 460.794 332.733 459.096 332.733C457.399 332.733 456.022 331.357 456.022 329.658C456.022 327.962 457.399 326.584 459.096 326.584C460.794 326.584 462.169 327.962 462.169 329.658Z" fill="#F3EDD8"/>
<path d="M375.823 358.005C375.823 359.703 374.448 361.079 372.75 361.079C371.052 361.079 369.677 359.703 369.677 358.005C369.677 356.307 371.052 354.93 372.75 354.93C374.448 354.93 375.823 356.307 375.823 358.005Z" fill="#F3EDD8"/>
<path d="M393.565 318.487C393.565 321.418 391.189 323.795 388.26 323.795C385.33 323.795 382.954 321.418 382.954 318.487C382.954 315.558 385.33 313.181 388.26 313.181C391.189 313.181 393.565 315.558 393.565 318.487Z" fill="#FEFEFE"/>
<path d="M326.49 362.088C326.49 363.145 326.216 364.138 325.733 365H315.307C314.823 364.138 314.549 363.145 314.549 362.088C314.549 358.789 317.22 356.111 320.516 356.111C323.82 356.111 326.49 358.789 326.49 362.088Z" fill="#FEFEFE"/>
<path d="M375.601 174.783V264.232H347.438V174.783C347.438 167.007 353.741 160.697 361.519 160.697C365.409 160.697 368.924 162.276 371.474 164.825C374.022 167.37 375.601 170.897 375.601 174.783Z" fill="#FEFEFE"/>
<path d="M487.35 174.783V264.232H459.187V174.783C459.187 167.007 465.495 160.697 473.269 160.697C477.158 160.697 480.678 162.276 483.228 164.825C485.771 167.37 487.35 170.897 487.35 174.783Z" fill="#FEFEFE"/>
<path d="M391.659 193.83V255.124H324.324V233.532L391.659 193.83Z" fill="#34BDB8"/>
<path d="M391.659 221.288V255.124H324.324C324.324 255.124 347.015 226.275 391.659 221.288Z" fill="#28A6A1"/>
<path d="M445.069 193.83V255.124H512.404V233.532L445.069 193.83Z" fill="#34BDB8"/>
<path d="M445.069 221.288V255.124H512.404C512.404 255.124 489.713 226.275 445.069 221.288Z" fill="#28A6A1"/>
<path d="M446.528 152.294V255.124H388.26V150.49C388.26 127.185 397.01 104.73 412.781 87.5728L414.001 86.2514C414.912 85.2558 416.151 84.756 417.394 84.756C418.637 84.756 419.876 85.2558 420.789 86.2514C437.341 104.259 446.528 127.831 446.528 152.294Z" fill="#F3EDD8"/>
<path d="M417.394 84.756V255.124H388.26V150.49C388.26 127.185 397.01 104.73 412.781 87.5728L414.001 86.2514C414.912 85.2558 416.151 84.756 417.394 84.756Z" fill="#FEFEFE"/>
<path d="M446.528 255.124H388.26V248.401H446.528V255.124Z" fill="#ED6DA8"/>
<path d="M436.811 273.336H397.977L388.26 255.124H446.528L436.811 273.336Z" fill="#2E2E30"/>
<path d="M421.602 219.948V288.277H413.186V219.948C413.186 217.627 415.07 215.742 417.391 215.742C418.552 215.742 419.606 216.212 420.369 216.975C421.131 217.739 421.602 218.788 421.602 219.948Z" fill="#28A6A1"/>
<path d="M421.602 219.948V288.277H417.391V215.742C418.552 215.742 419.606 216.212 420.368 216.975C421.131 217.739 421.602 218.788 421.602 219.948Z" fill="#34BDB8"/>
<path d="M375.601 264.232L370.742 273.334H352.296L347.438 264.232H375.601Z" fill="#2E2E30"/>
<path d="M487.35 264.232L482.492 273.334H464.046L459.187 264.232H487.35Z" fill="#2E2E30"/>
<path d="M375.601 180.214V187.738H347.438V180.214H375.601Z" fill="#F3EDD8"/>
<path d="M487.35 180.214V187.738H459.187V180.214H487.35Z" fill="#F3EDD8"/>
<path d="M429.558 156.925C429.558 163.047 424.594 168.011 418.474 168.011C412.353 168.011 407.392 163.047 407.392 156.925C407.392 150.801 412.353 145.837 418.474 145.837C424.594 145.837 429.558 150.801 429.558 156.925Z" fill="#ED6DA8"/>
<path d="M426.323 156.925C426.323 161.262 422.81 164.776 418.474 164.776C414.138 164.776 410.624 161.262 410.624 156.925C410.624 152.587 414.138 149.072 418.474 149.072C422.81 149.072 426.323 152.587 426.323 156.925Z" fill="#2E2E30"/>
<path d="M434.889 130.497H429.785C429.785 123.659 424.234 118.108 417.39 118.108C410.553 118.108 405.005 123.659 405.005 130.497H399.899C399.899 120.837 407.733 113.002 417.39 113.002C427.055 113.002 434.889 120.837 434.889 130.497Z" fill="#2E2E30"/>
<path d="M429.558 190.946C429.558 197.071 424.594 202.034 418.474 202.034C412.353 202.034 407.392 197.071 407.392 190.946C407.392 184.824 412.353 179.86 418.474 179.86C424.594 179.86 429.558 184.824 429.558 190.946Z" fill="#ED6DA8"/>
<path d="M426.323 190.946C426.323 195.285 422.81 198.801 418.474 198.801C414.138 198.801 410.624 195.285 410.624 190.946C410.624 186.61 414.138 183.095 418.474 183.095C422.81 183.095 426.323 186.61 426.323 190.946Z" fill="#2E2E30"/>
<path d="M249.106 274.789C249.106 280.641 244.363 285.385 238.515 285.385C232.664 285.385 227.922 280.641 227.922 274.789C227.922 268.938 232.664 264.195 238.515 264.195C244.363 264.195 249.106 268.938 249.106 274.789Z" fill="#D55593"/>
<path d="M270.911 250.298C270.911 254.152 267.788 257.277 263.935 257.277C260.082 257.277 256.96 254.152 256.96 250.298C256.96 246.445 260.082 243.321 263.935 243.321C267.788 243.321 270.911 246.445 270.911 250.298Z" fill="#D55593"/>
<path d="M29.4208 121.75C29.4208 125.604 26.2974 128.727 22.446 128.727C18.5932 128.727 15.4697 125.604 15.4697 121.75C15.4697 117.896 18.5932 114.772 22.446 114.772C26.2974 114.772 29.4208 117.896 29.4208 121.75Z" fill="#D55593"/>
<path d="M299.412 72.0713C299.412 75.924 296.287 79.0499 292.435 79.0499C288.583 79.0499 285.459 75.924 285.459 72.0713C285.459 68.2172 288.583 65.0927 292.435 65.0927C296.287 65.0927 299.412 68.2172 299.412 72.0713Z" fill="#ED6CA6"/>
<path d="M324.302 73.724C324.302 76.3695 322.158 78.5138 319.514 78.5138C316.871 78.5138 314.727 76.3695 314.727 73.724C314.727 71.0799 316.871 68.9342 319.514 68.9342C322.158 68.9342 324.302 71.0799 324.302 73.724Z" fill="#ED6CA6"/>
<path d="M417.974 56.4598C417.974 59.1054 415.831 61.251 413.186 61.251C410.541 61.251 408.398 59.1054 408.398 56.4598C408.398 53.8157 410.541 51.6714 413.186 51.6714C415.831 51.6714 417.974 53.8157 417.974 56.4598Z" fill="#ED6CA6"/>
<path d="M494.326 80.7027C494.326 84.5568 491.204 87.6813 487.35 87.6813C483.498 87.6813 480.374 84.5568 480.374 80.7027C480.374 76.8485 483.498 73.724 487.35 73.724C491.204 73.724 494.326 76.8485 494.326 80.7027Z" fill="#ED6CA6"/>
<path d="M541.615 202.99C541.615 206.843 538.493 209.968 534.64 209.968C530.787 209.968 527.664 206.843 527.664 202.99C527.664 199.135 530.787 196.012 534.64 196.012C538.493 196.012 541.615 199.135 541.615 202.99Z" fill="#D55593"/>
<path d="M547.626 309.114C547.626 312.967 544.504 316.091 540.65 316.091C536.797 316.091 533.674 312.967 533.674 309.114C533.674 305.258 536.797 302.135 540.65 302.135C544.504 302.135 547.626 305.258 547.626 309.114Z" fill="#ED6CA6"/>
<path d="M243.444 344.469C243.444 348.323 240.321 351.448 236.468 351.448C232.615 351.448 229.493 348.323 229.493 344.469C229.493 340.617 232.615 337.491 236.468 337.491C240.321 337.491 243.444 340.617 243.444 344.469Z" fill="#ED6CA6"/>
<path d="M124.236 341.769C124.236 345.622 121.113 348.747 117.26 348.747C113.407 348.747 110.285 345.622 110.285 341.769C110.285 337.915 113.407 334.791 117.26 334.791C121.113 334.791 124.236 337.915 124.236 341.769Z" fill="#ED6CA6"/>
<path d="M551.002 234.83C551.002 240.549 546.367 245.185 540.65 245.185C534.935 245.185 530.301 240.549 530.301 234.83C530.301 229.113 534.935 224.476 540.65 224.476C546.367 224.476 551.002 229.113 551.002 234.83Z" fill="#D55593"/>
<path d="M348.671 121.75C348.671 125.604 345.548 128.727 341.697 128.727C337.844 128.727 334.72 125.604 334.72 121.75C334.72 117.896 337.844 114.772 341.697 114.772C345.548 114.772 348.671 117.896 348.671 121.75Z" fill="#ED6CA6"/>
<path d="M524.33 61.5727C528.866 66.1105 528.866 73.4651 524.33 78.0015C519.797 82.5378 512.443 82.5378 507.908 78.0015C503.374 73.4651 503.374 66.1105 507.908 61.5727C512.443 57.0363 519.797 57.0363 524.33 61.5727Z" fill="#ED6CA6"/>
<path d="M334.701 295.521C339.237 300.058 339.237 307.412 334.701 311.95C330.166 316.487 322.814 316.487 318.278 311.95C313.744 307.412 313.744 300.058 318.278 295.521C322.814 290.984 330.166 290.984 334.701 295.521Z" fill="#ED6CA6"/>
<path d="M334.701 295.521C339.237 300.058 339.237 307.412 334.701 311.95C330.166 316.487 322.814 316.487 318.278 311.95C313.744 307.412 313.744 300.058 318.278 295.521C322.814 290.984 330.166 290.984 334.701 295.521Z" fill="#ED6CA6"/>
<path d="M500.477 129.236L499.757 126.696L499.038 129.236C498.431 131.376 496.99 133.182 495.04 134.25C496.99 135.316 498.431 137.124 499.038 139.264L499.757 141.802L500.477 139.264C501.084 137.124 502.523 135.316 504.476 134.25C502.523 133.182 501.084 131.376 500.477 129.236Z" fill="#FEFEFE"/>
<path d="M348.156 138.453L347.438 135.915L346.717 138.453C346.11 140.593 344.67 142.401 342.719 143.467C344.67 144.535 346.11 146.341 346.717 148.481L347.438 151.021L348.156 148.481C348.765 146.341 350.204 144.535 352.155 143.467C350.204 142.401 348.765 140.593 348.156 138.453Z" fill="#FEFEFE"/>
<path d="M542.336 329.543L541.615 327.005L540.896 329.543C540.288 331.684 538.849 333.49 536.897 334.558C538.849 335.626 540.288 337.432 540.896 339.572L541.615 342.111L542.336 339.572C542.943 337.432 544.383 335.626 546.333 334.558C544.383 333.49 542.943 331.684 542.336 329.543Z" fill="#FEFEFE"/>
<path d="M276.017 324.646L275.296 322.108L274.576 324.646C273.969 326.786 272.53 328.592 270.578 329.658C272.53 330.726 273.969 332.534 274.576 334.674L275.296 337.212L276.017 334.674C276.622 332.534 278.063 330.726 280.014 329.658C278.063 328.592 276.622 326.786 276.017 324.646Z" fill="#FEFEFE"/>
<path d="M317.689 269.776L316.969 267.236L316.248 269.776C315.643 271.916 314.202 273.722 312.251 274.789C314.202 275.857 315.643 277.664 316.248 279.804L316.969 282.342L317.689 279.804C318.296 277.664 319.736 275.857 321.688 274.789C319.736 273.722 318.296 271.916 317.689 269.776Z" fill="#FEFEFE"/>
<path d="M450.828 86.4852L450.107 83.9469L449.388 86.4852C448.781 88.6253 447.341 90.4312 445.389 91.4992C447.341 92.5672 448.781 94.3731 449.388 96.5132L450.107 99.0515L450.828 96.5132C451.433 94.3731 452.875 92.5672 454.825 91.4992C452.875 90.4312 451.433 88.6253 450.828 86.4852Z" fill="#FEFEFE"/>
<path d="M525.384 118.184L524.872 116.377L524.361 118.184C523.928 119.705 522.905 120.991 521.517 121.75C522.905 122.509 523.928 123.794 524.361 125.316L524.872 127.122L525.384 125.316C525.815 123.794 526.84 122.509 528.227 121.75C526.84 120.991 525.815 119.705 525.384 118.184Z" fill="#FEFEFE"/>
<path d="M366.028 53.2504L365.516 51.4445L365.004 53.2504C364.572 54.7737 363.548 56.0575 362.16 56.8177C363.548 57.5765 364.572 58.8617 365.004 60.3836L365.516 62.1895L366.028 60.3836C366.46 58.8617 367.484 57.5765 368.872 56.8177C367.484 56.0575 366.46 54.7737 366.028 53.2504Z" fill="#34BDB8"/>
<path d="M284.365 95.4857L283.853 93.6797L283.341 95.4857C282.909 97.0089 281.885 98.2927 280.497 99.0516C281.885 99.8118 282.909 101.097 283.341 102.619L283.853 104.425L284.365 102.619C284.797 101.097 285.821 99.8118 287.209 99.0516C285.821 98.2927 284.797 97.0089 284.365 95.4857Z" fill="#34BDB8"/>
<path d="M271.891 197.802L270.911 194.345L269.931 197.802C269.104 200.716 267.143 203.177 264.486 204.631C267.143 206.084 269.104 208.543 269.931 211.459L270.911 214.915L271.891 211.459C272.716 208.543 274.679 206.084 277.336 204.631C274.679 203.177 272.716 200.716 271.891 197.802Z" fill="#34BDB8"/>
<path d="M123 51.5572L122.02 48.0999L121.04 51.5572C120.213 54.4715 118.252 56.9304 115.595 58.3841C118.252 59.8377 120.213 62.2981 121.04 65.2138L122.02 68.671L123 65.2138C123.827 62.2981 125.788 59.8377 128.445 58.3841C125.788 56.9304 123.827 54.4715 123 51.5572Z" fill="#34BDB8"/>
<path d="M152.99 313.065L152.01 309.61L151.03 313.065C150.203 315.981 148.242 318.441 145.585 319.895C148.242 321.349 150.203 323.808 151.03 326.723L152.01 330.181L152.99 326.723C153.817 323.808 155.778 321.349 158.435 319.895C155.778 318.441 153.817 315.981 152.99 313.065Z" fill="#34BDB8"/>
<path d="M284.439 179.895L283.853 177.83L283.267 179.895C282.774 181.637 281.602 183.107 280.014 183.976C281.602 184.845 282.774 186.314 283.267 188.056L283.853 190.122L284.439 188.056C284.933 186.314 286.105 184.845 287.693 183.976C286.105 183.107 284.933 181.637 284.439 179.895Z" fill="#34BDB8"/>
<path d="M137.218 39.0035L136.632 36.9372L136.046 39.0035C135.554 40.744 134.382 42.2144 132.794 43.0832C134.382 43.9521 135.554 45.4224 136.046 47.1643L136.632 49.2306L137.218 47.1643C137.713 45.4224 138.885 43.9521 140.473 43.0832C138.885 42.2144 137.713 40.744 137.218 39.0035Z" fill="#34BDB8"/>
<path d="M293.627 309.615L293.115 307.808L292.603 309.615C292.171 311.137 291.147 312.422 289.759 313.181C291.147 313.94 292.171 315.225 292.603 316.747L293.115 318.553L293.627 316.747C294.059 315.225 295.083 313.94 296.471 313.181C295.083 312.422 294.059 311.137 293.627 309.615Z" fill="#FEFEFE"/>
<path d="M504.987 275.142L504.476 273.336L503.964 275.142C503.532 276.664 502.508 277.949 501.12 278.71C502.508 279.469 503.532 280.752 503.964 282.274L504.476 284.081L504.987 282.274C505.42 280.752 506.443 279.469 507.83 278.71C506.443 277.949 505.42 276.664 504.987 275.142Z" fill="#FEFEFE"/>
<path d="M364.873 126.931L364.361 125.125L363.85 126.931C363.417 128.455 362.393 129.738 361.005 130.497C362.393 131.257 363.417 132.543 363.85 134.064L364.361 135.87L364.873 134.064C365.303 132.543 366.329 131.257 367.717 130.497C366.329 129.738 365.303 128.455 364.873 126.931Z" fill="#FEFEFE"/>
<path d="M35.2 28.0468H33.417L31.8385 30.9805L30.2212 28.0468H28.4381L30.9519 32.7447V34.8792H32.7349V32.696L35.2 28.0468ZM39.0486 27.998C36.9343 27.998 35.3559 29.4698 35.3559 31.4581C35.3559 33.4562 36.9343 34.9572 39.0486 34.9572C41.1629 34.9572 42.7414 33.4562 42.7414 31.4581C42.7414 29.4795 41.1629 27.998 39.0486 27.998ZM39.0681 29.5185C40.0912 29.5185 40.9096 30.3568 40.9096 31.4679C40.9096 32.579 40.0912 33.4367 39.0681 33.4367C38.0548 33.4367 37.1876 32.579 37.1876 31.4679C37.1876 30.3568 38.0451 29.5185 39.0681 29.5185ZM45.2927 32.0137V28.0468H43.5097V32.0137C43.5097 33.8168 44.7471 34.9572 46.6763 34.9572C48.5957 34.9572 49.8039 33.8168 49.8039 32.0137V28.0468H48.0209V32.0137C48.0209 32.9006 47.4752 33.4367 46.686 33.4367C45.8773 33.4367 45.2927 32.8909 45.2927 32.0137ZM57.1323 34.8792L55.7098 32.6472C56.499 32.2379 56.9277 31.4776 56.9277 30.4445C56.9277 28.924 55.8949 28.0468 54.0826 28.0468H51.0135V34.8792H52.7965V32.9884H54.0826H54.1216L55.1154 34.8792H57.1323ZM52.7965 29.4698H54.0924C54.8134 29.4698 55.2323 29.8304 55.2323 30.503C55.2323 31.195 54.8134 31.5654 54.0924 31.5654H52.7965V29.4698ZM58.0663 28.0468V34.8792H59.7324V30.7856L62.8307 34.8792H64.3897V28.0468H62.7333V32.1599L59.6349 28.0468H58.0663ZM70.7424 34.8792H72.6423L69.7778 28.0468H67.946L65.0133 34.8792H66.845L67.3224 33.6706H70.2747L70.7424 34.8792ZM67.8583 32.3061L68.8132 29.8694L69.7485 32.3061H67.8583ZM73.2575 28.0468V34.8792H74.8457V30.5517L76.4339 34.197H77.6031L79.1912 30.5517L79.201 34.8792H80.7794V28.0468H78.8307L77.0185 32.0332L75.2062 28.0468H73.2575ZM82.1031 28.0468V34.8792H87.5886V33.4562H83.8861V32.1696L87.1404 32.1599V30.7466H83.8861V29.4698H87.4912V28.0468H82.1031Z" fill="#FEFEFE"/>
<path d="M63.1439 152.846L59.3899 146.957C61.4722 145.878 62.6038 143.871 62.6038 141.145C62.6038 137.133 59.8785 134.819 55.0973 134.819H46.9991V152.846H51.7038V147.857H55.0973H55.2003L57.8226 152.846H63.1439ZM51.7038 138.573H55.1223C57.0251 138.573 58.1302 139.525 58.1302 141.299C58.1302 143.126 57.0251 144.102 55.1223 144.102H51.7038V138.573ZM72.0646 138.779C67.488 138.779 64.4801 141.608 64.4801 145.878C64.4801 150.172 67.488 153.001 72.0646 153.001C76.6398 153.001 79.6742 150.172 79.6742 145.878C79.6742 141.608 76.6398 138.779 72.0646 138.779ZM72.0646 142.483C73.8644 142.483 75.0725 143.871 75.0725 145.929C75.0725 148.012 73.8644 149.4 72.0646 149.4C70.2899 149.4 69.0818 148.012 69.0818 145.929C69.0818 143.871 70.2899 142.483 72.0646 142.483ZM90.9848 143.999L94.3017 142.071C93.0935 139.988 90.8818 138.779 88.0799 138.779C83.7608 138.779 80.8823 141.634 80.8823 145.954C80.8823 150.198 83.7358 153.001 88.0284 153.001C90.9848 153.001 93.2481 151.792 94.3532 149.658L90.9848 147.729C90.4197 148.808 89.469 149.297 88.2595 149.297C86.6142 149.297 85.484 147.961 85.484 145.929C85.484 143.923 86.6142 142.559 88.2595 142.559C89.4426 142.559 90.3682 143.1 90.9848 143.999ZM105.511 152.846H110.909L105.715 144.308L110.806 138.934H105.612L101.165 143.64V133.765H96.59V152.846H101.165V149.066L102.579 147.6L105.511 152.846Z" fill="#5E489A"/>
<path d="M118.133 138.779C113.787 138.779 110.882 141.633 110.882 145.954C110.882 150.198 113.684 153.001 118.236 153.001C120.805 153.001 122.889 152.126 124.301 150.532L121.912 148.14C120.986 149.066 119.829 149.555 118.646 149.555C117.077 149.555 115.921 148.68 115.484 147.111H125.151C125.458 142.046 122.99 138.779 118.133 138.779ZM115.381 144.669C115.69 143.075 116.667 141.994 118.158 141.994C119.7 141.994 120.728 143.075 120.728 144.669H115.381ZM135.69 148.886C135.022 149.169 134.43 149.349 133.967 149.349C133.171 149.375 132.707 148.911 132.707 147.882V142.637H136.307V139.602H132.707V135.745H128.157V139.602H126.229V142.637H128.157V148.604C128.157 151.483 130.111 153.077 132.81 153.052C134.173 153.052 135.562 152.718 136.564 152.126L135.69 148.886ZM162.426 134.819H157.721L153.557 142.559L149.289 134.819H144.584L151.217 147.214V152.846H155.921V147.086L162.426 134.819ZM168.879 138.779C164.302 138.779 161.294 141.608 161.294 145.877C161.294 150.172 164.302 153.001 168.879 153.001C173.455 153.001 176.488 150.172 176.488 145.877C176.488 141.608 173.455 138.779 168.879 138.779ZM168.879 142.483C170.678 142.483 171.887 143.871 171.887 145.929C171.887 148.012 170.678 149.4 168.879 149.4C167.105 149.4 165.897 148.012 165.897 145.929C165.897 143.871 167.105 142.483 168.879 142.483ZM187.825 138.934V145.799C187.825 147.626 186.848 148.911 185.228 148.938C183.865 148.938 182.991 147.985 182.991 146.418V138.934H178.416V147.729C178.416 150.969 180.37 153.052 183.377 153.052C185.357 153.026 186.873 152.203 187.825 150.584V152.846H192.401V138.934H187.825ZM200.474 141.248V138.934H195.897V152.846H200.474V145.748C200.705 143.819 202.401 142.689 204.946 142.945V138.754C202.993 138.754 201.424 139.653 200.474 141.248Z" fill="#5E489A"/>
<path d="M77.4234 165.68H68.8632V183.707H77.7574C82 183.707 84.6989 181.779 84.6989 178.692C84.6989 176.378 83.2847 174.604 80.9978 174.14C82.8992 173.626 84.1073 172.109 84.1073 170.232C84.1073 167.454 81.5114 165.68 77.4234 165.68ZM77.1673 172.855H73.5678V169.357H77.1673C78.4785 169.332 79.2746 169.974 79.2746 171.055C79.2746 172.187 78.4785 172.855 77.1673 172.855ZM77.1673 180.055H73.5678V176.275H77.1673C78.8125 176.25 79.8397 176.969 79.8397 178.101C79.8397 179.335 78.8125 180.055 77.1673 180.055ZM96.267 169.794V176.66C96.267 178.487 95.2913 179.772 93.6711 179.799C92.3085 179.799 91.4343 178.846 91.4343 177.279V169.794H86.8591V178.59C86.8591 181.83 88.812 183.913 91.8199 183.913C93.7992 183.887 95.3164 183.064 96.267 181.445V183.707H100.844V169.794H96.267ZM113.62 174.192L115.162 171.209C113.414 170.155 111.383 169.588 109.377 169.588C106.113 169.588 103.671 171.183 103.671 174.089C103.671 178.898 110.843 177.947 110.843 179.85C110.843 180.416 110.226 180.698 109.377 180.698C107.835 180.698 106.035 180.081 104.442 178.976L103.002 181.933C104.699 183.245 106.936 183.913 109.274 183.913C112.668 183.913 115.162 182.292 115.162 179.438C115.187 174.604 107.887 175.478 107.887 173.651C107.887 173.061 108.427 172.777 109.198 172.777C110.329 172.777 111.897 173.292 113.62 174.192ZM119.918 163.777C118.71 163.777 117.836 164.651 117.836 165.886C117.836 167.095 118.71 167.969 119.918 167.969C121.126 167.969 122.001 167.095 122.001 165.886C122.001 164.651 121.126 163.777 119.918 163.777ZM117.63 169.794V183.707H122.18V169.794H117.63ZM134.853 169.615C132.823 169.615 131.229 170.463 130.252 172.057V169.794H125.677V183.707H130.252V176.353C130.433 174.783 131.435 173.729 132.977 173.703C134.416 173.703 135.342 174.68 135.342 176.25V183.707H139.892V174.938C139.892 171.671 137.888 169.615 134.853 169.615ZM149.122 169.64C144.776 169.64 141.871 172.494 141.871 176.815C141.871 181.059 144.675 183.862 149.225 183.862C151.796 183.862 153.878 182.987 155.291 181.393L152.901 179.001C151.975 179.927 150.819 180.416 149.636 180.416C148.068 180.416 146.91 179.541 146.473 177.972H156.14C156.449 172.906 153.98 169.64 149.122 169.64ZM146.372 175.53C146.679 173.935 147.656 172.855 149.147 172.855C150.689 172.855 151.718 173.935 151.718 175.53H146.372ZM167.786 174.192L169.328 171.209C167.58 170.155 165.549 169.588 163.543 169.588C160.279 169.588 157.837 171.183 157.837 174.089C157.837 178.898 165.009 177.947 165.009 179.85C165.009 180.416 164.393 180.698 163.543 180.698C162.001 180.698 160.202 180.081 158.608 178.976L157.169 181.933C158.865 183.245 161.102 183.913 163.44 183.913C166.834 183.913 169.328 182.292 169.328 179.438C169.353 174.604 162.053 175.478 162.053 173.651C162.053 173.061 162.593 172.777 163.364 172.777C164.496 172.777 166.063 173.292 167.786 174.192ZM181.076 174.192L182.618 171.209C180.87 170.155 178.839 169.588 176.835 169.588C173.569 169.588 171.127 171.183 171.127 174.089C171.127 178.898 178.299 177.947 178.299 179.85C178.299 180.416 177.682 180.698 176.835 180.698C175.291 180.698 173.493 180.081 171.898 178.976L170.458 181.933C172.155 183.245 174.392 183.913 176.732 183.913C180.125 183.913 182.618 182.292 182.618 179.438C182.645 174.604 175.343 175.478 175.343 173.651C175.343 173.061 175.883 172.777 176.654 172.777C177.785 172.777 179.354 173.292 181.076 174.192Z" fill="#5E489A"/>
<path d="M155.707 274.517H94.7457C87.5162 274.517 81.6534 269.095 81.6534 262.409C81.6534 255.72 87.5162 250.298 94.7457 250.298H155.707C162.938 250.298 168.799 255.72 168.799 262.409C168.799 269.095 162.938 274.517 155.707 274.517Z" fill="#34BDB8"/>
<path d="M104.522 257.405V267.165H106.791V260.983L109.06 266.191H110.73L112.999 260.983L113.013 267.165H115.268V257.405H112.484L109.895 263.1L107.306 257.405H104.522ZM121.81 257.335C118.79 257.335 116.535 259.438 116.535 262.278C116.535 265.132 118.79 267.277 121.81 267.277C124.83 267.277 127.085 265.132 127.085 262.278C127.085 259.451 124.83 257.335 121.81 257.335ZM121.838 259.507C123.299 259.507 124.468 260.705 124.468 262.292C124.468 263.879 123.299 265.105 121.838 265.105C120.39 265.105 119.151 263.879 119.151 262.292C119.151 260.705 120.376 259.507 121.838 259.507ZM137.093 267.165L135.061 263.977C136.188 263.392 136.801 262.306 136.801 260.83C136.801 258.658 135.325 257.405 132.736 257.405H128.352V267.165H130.899V264.464H132.736H132.792L134.212 267.165H137.093ZM130.899 259.438H132.75C133.78 259.438 134.379 259.953 134.379 260.914C134.379 261.902 133.78 262.431 132.75 262.431H130.899V259.438ZM138.429 257.405V267.165H146.266V265.132H140.977V263.294L145.625 263.281V261.262H140.977V259.438H146.127V257.405H138.429Z" fill="#FEFEFE"/>
<path d="M47.8439 204.103V199.974H47.0227V204.848H49.9527V204.103H47.8439ZM52.6251 201.116C51.4768 201.116 50.6904 201.875 50.6904 202.996C50.6904 204.11 51.4768 204.876 52.6251 204.876C53.7665 204.876 54.5529 204.11 54.5529 202.996C54.5529 201.875 53.7665 201.116 52.6251 201.116ZM52.6251 201.805C53.2863 201.805 53.7526 202.293 53.7526 203.003C53.7526 203.72 53.2863 204.207 52.6251 204.207C51.957 204.207 51.4907 203.72 51.4907 203.003C51.4907 202.293 51.957 201.805 52.6251 201.805ZM56.5364 201.144H55.736V204.848H56.5364V202.912C56.599 202.279 57.0723 201.84 57.8169 201.882V201.116C57.2323 201.116 56.7869 201.381 56.5364 201.882V201.144ZM60.3502 201.116C59.2506 201.123 58.4781 201.882 58.4781 203.003C58.4781 204.117 59.2297 204.876 60.3711 204.876C61.0114 204.876 61.5403 204.646 61.9022 204.249L61.4777 203.797C61.2062 204.075 60.8374 204.228 60.4337 204.228C59.8491 204.228 59.4107 203.873 59.2854 203.302H62.0831C62.1806 201.966 61.6516 201.116 60.3502 201.116ZM59.2715 202.717C59.362 202.126 59.7726 201.757 60.3572 201.757C60.9626 201.757 61.3593 202.119 61.3872 202.717H59.2715ZM68.0962 201.116C67.4211 201.116 66.927 201.388 66.6904 202.007C66.5164 201.443 66.064 201.116 65.4028 201.116C64.7904 201.116 64.3171 201.339 64.0596 201.861V201.144H63.2663V204.848H64.0596V203.017C64.0596 202.369 64.4494 201.882 65.0897 201.861C65.6325 201.861 65.9596 202.202 65.9596 202.766V204.848H66.7599V203.017C66.7599 202.369 67.1427 201.882 67.776 201.861C68.3189 201.861 68.6529 202.202 68.6529 202.766V204.848H69.4533V202.543C69.4533 201.659 68.9452 201.116 68.0962 201.116ZM73.4133 199.599C73.1488 199.599 72.947 199.8 72.947 200.086C72.947 200.364 73.1488 200.566 73.4133 200.566C73.6777 200.566 73.8796 200.364 73.8796 200.086C73.8796 199.8 73.6777 199.599 73.4133 199.599ZM73.81 204.848V201.144H73.0166V204.848H73.81ZM77.4707 201.116C76.893 201.116 76.4476 201.353 76.1762 201.785V201.144H75.3758V206.198H76.1762V204.207C76.4476 204.639 76.893 204.876 77.4846 204.876C78.5424 204.876 79.2384 204.117 79.2384 203.01C79.2384 201.882 78.5216 201.116 77.4707 201.116ZM77.3036 204.193C76.6425 204.193 76.1762 203.699 76.1762 202.982C76.1762 202.286 76.6425 201.785 77.3036 201.785C77.9648 201.785 78.4311 202.293 78.4311 202.982C78.4311 203.692 77.9648 204.193 77.3036 204.193ZM81.5281 201.109C80.8182 201.109 80.164 201.43 80.164 202.181C80.1571 203.518 82.1057 203.093 82.1057 203.852C82.1057 204.131 81.8413 204.249 81.5002 204.249C81.0966 204.249 80.5816 204.075 80.2614 203.79L79.9761 204.36C80.345 204.695 80.9226 204.876 81.4654 204.876C82.2101 204.876 82.8852 204.535 82.8852 203.776C82.8922 202.432 80.9226 202.801 80.9226 202.119C80.9226 201.854 81.1523 201.75 81.4654 201.75C81.7925 201.75 82.2032 201.875 82.5303 202.077L82.8225 201.485C82.4885 201.249 81.9944 201.109 81.5281 201.109ZM87.4019 201.144H86.6016V202.968C86.6016 203.616 86.2258 204.11 85.5855 204.124C85.0496 204.124 84.7225 203.783 84.7225 203.226V201.144H83.9222V203.448C83.9222 204.333 84.4302 204.876 85.2793 204.876C85.8848 204.869 86.351 204.639 86.6016 204.124V204.848H87.4019V201.144ZM93.7629 201.116C93.0879 201.116 92.5937 201.388 92.3571 202.007C92.1831 201.443 91.7308 201.116 91.0696 201.116C90.4572 201.116 89.9839 201.339 89.7264 201.861V201.144H88.933V204.848H89.7264V203.017C89.7264 202.369 90.1161 201.882 90.7564 201.861C91.2993 201.861 91.6264 202.202 91.6264 202.766V204.848H92.4267V203.017C92.4267 202.369 92.8095 201.882 93.4428 201.861C93.9857 201.861 94.3197 202.202 94.3197 202.766V204.848H95.1201V202.543C95.1201 201.659 94.612 201.116 93.7629 201.116ZM102.212 199.682H101.411V201.785C101.14 201.353 100.695 201.109 100.096 201.109C99.0522 201.109 98.3354 201.868 98.3354 202.982C98.3354 204.11 99.0452 204.883 100.11 204.883C100.702 204.883 101.147 204.646 101.411 204.214V204.848H102.212V199.682ZM100.277 204.214C99.602 204.214 99.1427 203.713 99.1357 203.01C99.1427 202.3 99.609 201.792 100.277 201.792C100.945 201.792 101.411 202.293 101.411 203.01C101.411 203.713 100.945 204.214 100.277 204.214ZM105.364 201.116C104.216 201.116 103.43 201.875 103.43 202.996C103.43 204.11 104.216 204.876 105.364 204.876C106.506 204.876 107.292 204.11 107.292 202.996C107.292 201.875 106.506 201.116 105.364 201.116ZM105.364 201.805C106.026 201.805 106.492 202.293 106.492 203.003C106.492 203.72 106.026 204.207 105.364 204.207C104.696 204.207 104.23 203.72 104.23 203.003C104.23 202.293 104.696 201.805 105.364 201.805ZM109.311 204.848V199.682H108.51V204.848H109.311ZM112.463 201.116C111.315 201.116 110.528 201.875 110.528 202.996C110.528 204.11 111.315 204.876 112.463 204.876C113.605 204.876 114.391 204.11 114.391 202.996C114.391 201.875 113.605 201.116 112.463 201.116ZM112.463 201.805C113.124 201.805 113.591 202.293 113.591 203.003C113.591 203.72 113.124 204.207 112.463 204.207C111.795 204.207 111.329 203.72 111.329 203.003C111.329 202.293 111.795 201.805 112.463 201.805ZM116.374 201.144H115.574V204.848H116.374V202.912C116.437 202.279 116.91 201.84 117.655 201.882V201.116C117.07 201.116 116.625 201.381 116.374 201.882V201.144ZM121.914 201.109C121.204 201.109 120.55 201.43 120.55 202.181C120.543 203.518 122.492 203.093 122.492 203.852C122.492 204.131 122.227 204.249 121.886 204.249C121.483 204.249 120.968 204.075 120.648 203.79L120.362 204.36C120.731 204.695 121.309 204.876 121.852 204.876C122.596 204.876 123.271 204.535 123.271 203.776C123.278 202.432 121.309 202.801 121.309 202.119C121.309 201.854 121.538 201.75 121.852 201.75C122.179 201.75 122.589 201.875 122.916 202.077L123.209 201.485C122.875 201.249 122.381 201.109 121.914 201.109ZM124.825 199.599C124.56 199.599 124.358 199.8 124.358 200.086C124.358 200.364 124.56 200.566 124.825 200.566C125.089 200.566 125.291 200.364 125.291 200.086C125.291 199.8 125.089 199.599 124.825 199.599ZM125.221 204.848V201.144H124.428V204.848H125.221ZM128.644 203.998C128.428 204.103 128.254 204.159 128.087 204.159C127.837 204.159 127.691 204.04 127.691 203.657V201.882H128.783V201.283H127.691V200.267H126.897V201.283H126.375V201.882H126.897V203.803C126.897 204.562 127.378 204.883 127.934 204.883C128.247 204.883 128.554 204.785 128.846 204.611L128.644 203.998ZM134.297 204.848H135.083L135.076 202.418C135.069 201.604 134.533 201.116 133.58 201.116C132.877 201.116 132.501 201.276 131.986 201.583L132.313 202.14C132.682 201.889 133.051 201.764 133.406 201.764C133.99 201.764 134.29 202.042 134.29 202.509V202.62H133.169C132.278 202.627 131.77 203.059 131.77 203.734C131.77 204.388 132.271 204.883 133.072 204.883C133.608 204.883 134.032 204.722 134.297 204.395V204.848ZM133.239 204.249C132.793 204.249 132.522 204.033 132.522 203.699C132.522 203.344 132.766 203.205 133.288 203.205H134.29V203.546C134.248 203.95 133.81 204.249 133.239 204.249ZM141.333 201.116C140.658 201.116 140.164 201.388 139.927 202.007C139.753 201.443 139.301 201.116 138.639 201.116C138.027 201.116 137.554 201.339 137.296 201.861V201.144H136.503V204.848H137.296V203.017C137.296 202.369 137.686 201.882 138.326 201.861C138.869 201.861 139.196 202.202 139.196 202.766V204.848H139.997V203.017C139.997 202.369 140.379 201.882 141.013 201.861C141.555 201.861 141.89 202.202 141.89 202.766V204.848H142.69V202.543C142.69 201.659 142.182 201.116 141.333 201.116ZM145.634 201.116C144.534 201.123 143.762 201.882 143.762 203.003C143.762 204.117 144.513 204.876 145.655 204.876C146.295 204.876 146.824 204.646 147.186 204.249L146.761 203.797C146.49 204.075 146.121 204.228 145.717 204.228C145.133 204.228 144.694 203.873 144.569 203.302H147.367C147.464 201.966 146.935 201.116 145.634 201.116ZM144.555 202.717C144.645 202.126 145.056 201.757 145.641 201.757C146.246 201.757 146.643 202.119 146.671 202.717H144.555ZM150.443 203.998C150.227 204.103 150.053 204.159 149.886 204.159C149.635 204.159 149.489 204.04 149.489 203.657V201.882H150.582V201.283H149.489V200.267H148.696V201.283H148.174V201.882H148.696V203.803C148.696 204.562 149.176 204.883 149.733 204.883C150.046 204.883 150.352 204.785 150.645 204.611L150.443 203.998ZM151.897 204.005C151.647 204.005 151.466 204.193 151.466 204.451C151.466 204.597 151.528 204.729 151.654 204.813L151.389 205.419H151.8L152.197 204.82C152.273 204.709 152.322 204.59 152.322 204.451C152.322 204.173 152.12 204.005 151.897 204.005ZM157.228 201.116C156.129 201.116 155.363 201.882 155.363 203.003C155.363 204.117 156.129 204.876 157.228 204.876C157.931 204.876 158.467 204.625 158.801 204.186L158.356 203.741C158.105 204.033 157.729 204.186 157.263 204.186C156.623 204.186 156.164 203.706 156.164 203.003C156.164 202.3 156.623 201.819 157.263 201.819C157.709 201.812 158.063 201.973 158.321 202.237L158.759 201.722C158.418 201.332 157.896 201.116 157.228 201.116ZM161.424 201.116C160.275 201.116 159.489 201.875 159.489 202.996C159.489 204.11 160.275 204.876 161.424 204.876C162.565 204.876 163.351 204.11 163.351 202.996C163.351 201.875 162.565 201.116 161.424 201.116ZM161.424 201.805C162.085 201.805 162.551 202.293 162.551 203.003C162.551 203.72 162.085 204.207 161.424 204.207C160.755 204.207 160.289 203.72 160.289 203.003C160.289 202.293 160.755 201.805 161.424 201.805ZM166.699 201.116C166.073 201.116 165.599 201.339 165.335 201.854V201.144H164.534V204.848H165.335V202.878C165.39 202.3 165.773 201.875 166.386 201.868C166.942 201.868 167.277 202.209 167.277 202.766V204.848H168.077V202.543C168.077 201.659 167.562 201.116 166.699 201.116ZM170.603 201.109C169.893 201.109 169.239 201.43 169.239 202.181C169.232 203.518 171.181 203.093 171.181 203.852C171.181 204.131 170.916 204.249 170.575 204.249C170.172 204.249 169.657 204.075 169.337 203.79L169.051 204.36C169.42 204.695 169.998 204.876 170.541 204.876C171.285 204.876 171.96 204.535 171.96 203.776C171.967 202.432 169.998 202.801 169.998 202.119C169.998 201.854 170.227 201.75 170.541 201.75C170.868 201.75 171.278 201.875 171.605 202.077L171.898 201.485C171.564 201.249 171.069 201.109 170.603 201.109ZM174.64 201.116C173.54 201.123 172.768 201.882 172.768 203.003C172.768 204.117 173.519 204.876 174.661 204.876C175.301 204.876 175.83 204.646 176.192 204.249L175.767 203.797C175.496 204.075 175.127 204.228 174.723 204.228C174.139 204.228 173.7 203.873 173.575 203.302H176.373C176.47 201.966 175.941 201.116 174.64 201.116ZM173.561 202.717C173.651 202.126 174.062 201.757 174.647 201.757C175.252 201.757 175.649 202.119 175.677 202.717H173.561ZM179.073 201.116C177.973 201.116 177.208 201.882 177.208 203.003C177.208 204.117 177.973 204.876 179.073 204.876C179.776 204.876 180.312 204.625 180.646 204.186L180.2 203.741C179.95 204.033 179.574 204.186 179.108 204.186C178.467 204.186 178.008 203.706 178.008 203.003C178.008 202.3 178.467 201.819 179.108 201.819C179.553 201.812 179.908 201.973 180.166 202.237L180.604 201.722C180.263 201.332 179.741 201.116 179.073 201.116ZM183.722 203.998C183.506 204.103 183.332 204.159 183.165 204.159C182.915 204.159 182.768 204.04 182.768 203.657V201.882H183.861V201.283H182.768V200.267H181.975V201.283H181.453V201.882H181.975V203.803C181.975 204.562 182.455 204.883 183.012 204.883C183.325 204.883 183.631 204.785 183.924 204.611L183.722 203.998ZM186.493 201.116C185.394 201.123 184.621 201.882 184.621 203.003C184.621 204.117 185.373 204.876 186.514 204.876C187.154 204.876 187.683 204.646 188.045 204.249L187.621 203.797C187.349 204.075 186.98 204.228 186.577 204.228C185.992 204.228 185.554 203.873 185.428 203.302H188.226C188.324 201.966 187.795 201.116 186.493 201.116ZM185.414 202.717C185.505 202.126 185.916 201.757 186.5 201.757C187.106 201.757 187.502 202.119 187.53 202.717H185.414ZM191.302 203.998C191.086 204.103 190.913 204.159 190.745 204.159C190.495 204.159 190.349 204.04 190.349 203.657V201.882H191.441V201.283H190.349V200.267H189.555V201.283H189.033V201.882H189.555V203.803C189.555 204.562 190.036 204.883 190.592 204.883C190.906 204.883 191.212 204.785 191.504 204.611L191.302 203.998ZM195.951 201.144H195.151V202.968C195.151 203.616 194.775 204.11 194.135 204.124C193.599 204.124 193.272 203.783 193.272 203.226V201.144H192.471V203.448C192.471 204.333 192.979 204.876 193.829 204.876C194.434 204.869 194.9 204.639 195.151 204.124V204.848H195.951V201.144ZM199.006 201.116C197.907 201.123 197.134 201.882 197.134 203.003C197.134 204.117 197.886 204.876 199.027 204.876C199.668 204.876 200.197 204.646 200.558 204.249L200.134 203.797C199.862 204.075 199.494 204.228 199.09 204.228C198.505 204.228 198.067 203.873 197.942 203.302H200.739C200.837 201.966 200.308 201.116 199.006 201.116ZM197.928 202.717C198.018 202.126 198.429 201.757 199.013 201.757C199.619 201.757 200.016 202.119 200.043 202.717H197.928ZM202.723 201.144H201.922V204.848H202.723V202.912C202.785 202.279 203.259 201.84 204.003 201.882V201.116C203.419 201.116 202.973 201.381 202.723 201.882V201.144Z" fill="#444445"/>
<path d="M51.829 213.202H52.6155L52.6085 210.772C52.6016 209.958 52.0657 209.471 51.1122 209.471C50.4093 209.471 50.0335 209.631 49.5185 209.937L49.8456 210.494C50.2144 210.243 50.5833 210.118 50.9382 210.118C51.5228 210.118 51.8221 210.396 51.8221 210.863V210.974H50.7016C49.8108 210.981 49.3027 211.413 49.3027 212.088C49.3027 212.743 49.8038 213.237 50.6042 213.237C51.14 213.237 51.5646 213.077 51.829 212.75V213.202ZM50.7712 212.603C50.3258 212.603 50.0544 212.388 50.0544 212.053C50.0544 211.698 50.2979 211.559 50.8199 211.559H51.8221V211.9C51.7803 212.304 51.3419 212.603 50.7712 212.603ZM57.5637 208.036H56.7634V210.139C56.4919 209.707 56.0465 209.464 55.448 209.464C54.4041 209.464 53.6872 210.222 53.6872 211.336C53.6872 212.464 54.3971 213.237 55.4619 213.237C56.0535 213.237 56.4989 213 56.7634 212.569V213.202H57.5637V208.036ZM55.6289 212.569C54.9539 212.569 54.4945 212.067 54.4876 211.364C54.4945 210.654 54.9608 210.146 55.6289 210.146C56.2971 210.146 56.7634 210.647 56.7634 211.364C56.7634 212.067 56.2971 212.569 55.6289 212.569ZM59.5263 207.953C59.2618 207.953 59.06 208.155 59.06 208.44C59.06 208.719 59.2618 208.921 59.5263 208.921C59.7907 208.921 59.9926 208.719 59.9926 208.44C59.9926 208.155 59.7907 207.953 59.5263 207.953ZM59.923 213.202V209.498H59.1296V213.202H59.923ZM63.5837 209.471C63.0061 209.471 62.5606 209.707 62.2892 210.139V209.498H61.4889V214.553H62.2892V212.562C62.5606 212.993 63.0061 213.23 63.5976 213.23C64.6555 213.23 65.3514 212.471 65.3514 211.364C65.3514 210.236 64.6346 209.471 63.5837 209.471ZM63.4167 212.548C62.7555 212.548 62.2892 212.053 62.2892 211.336C62.2892 210.64 62.7555 210.139 63.4167 210.139C64.0778 210.139 64.5441 210.647 64.5441 211.336C64.5441 212.046 64.0778 212.548 63.4167 212.548ZM66.9312 207.953C66.6668 207.953 66.4649 208.155 66.4649 208.44C66.4649 208.719 66.6668 208.921 66.9312 208.921C67.1957 208.921 67.3975 208.719 67.3975 208.44C67.3975 208.155 67.1957 207.953 66.9312 207.953ZM67.3279 213.202V209.498H66.5345V213.202H67.3279ZM69.9656 209.464C69.2557 209.464 68.6015 209.784 68.6015 210.536C68.5946 211.872 70.5432 211.448 70.5432 212.207C70.5432 212.485 70.2788 212.603 69.9378 212.603C69.5341 212.603 69.0191 212.429 68.699 212.144L68.4136 212.715C68.7825 213.049 69.3601 213.23 69.903 213.23C70.6476 213.23 71.3227 212.889 71.3227 212.13C71.3297 210.786 69.3601 211.155 69.3601 210.473C69.3601 210.208 69.5898 210.104 69.903 210.104C70.2301 210.104 70.6407 210.229 70.9678 210.431L71.2601 209.84C70.926 209.603 70.4319 209.464 69.9656 209.464ZM73.9952 209.471C72.8956 209.471 72.13 210.236 72.13 211.357C72.13 212.471 72.8956 213.23 73.9952 213.23C74.6981 213.23 75.234 212.979 75.568 212.541L75.1226 212.095C74.8721 212.388 74.4963 212.541 74.03 212.541C73.3897 212.541 72.9304 212.06 72.9304 211.357C72.9304 210.654 73.3897 210.174 74.03 210.174C74.4754 210.167 74.8303 210.327 75.0878 210.591L75.5263 210.076C75.1852 209.686 74.6633 209.471 73.9952 209.471ZM77.1478 207.953C76.8834 207.953 76.6815 208.155 76.6815 208.44C76.6815 208.719 76.8834 208.921 77.1478 208.921C77.4123 208.921 77.6141 208.719 77.6141 208.44C77.6141 208.155 77.4123 207.953 77.1478 207.953ZM77.5445 213.202V209.498H76.7511V213.202H77.5445ZM81.24 209.471C80.6137 209.471 80.1404 209.693 79.876 210.208V209.498H79.0756V213.202H79.876V211.232C79.9316 210.654 80.3144 210.229 80.9269 210.222C81.4836 210.222 81.8177 210.564 81.8177 211.12V213.202H82.618V210.898C82.618 210.014 82.103 209.471 81.24 209.471ZM87.377 209.498H86.5836V210.097C86.3261 209.693 85.9015 209.464 85.3309 209.471C84.3496 209.477 83.6884 210.188 83.6884 211.232C83.6884 212.297 84.3565 213.021 85.3587 213.021C85.9155 213.021 86.333 212.798 86.5836 212.395V212.861C86.5836 213.501 86.1242 213.912 85.4213 213.912C84.969 213.912 84.6071 213.766 84.2591 213.508L83.9181 214.086C84.3704 214.393 84.8785 214.574 85.4561 214.574C86.6184 214.574 87.377 213.905 87.377 212.84V209.498ZM85.5188 212.395C84.8785 212.395 84.447 211.921 84.44 211.253C84.447 210.591 84.8854 210.118 85.5188 210.118C86.1451 210.118 86.5836 210.584 86.5836 211.253C86.5836 211.921 86.1451 212.395 85.5188 212.395ZM92.5075 209.471C91.4079 209.477 90.6354 210.236 90.6354 211.357C90.6354 212.471 91.387 213.23 92.5284 213.23C93.1687 213.23 93.6976 213 94.0595 212.603L93.635 212.151C93.3636 212.429 92.9947 212.583 92.591 212.583C92.0064 212.583 91.568 212.227 91.4427 211.657H94.2404C94.3379 210.32 93.809 209.471 92.5075 209.471ZM91.4288 211.072C91.5193 210.48 91.9299 210.111 92.5145 210.111C93.12 210.111 93.5167 210.473 93.5445 211.072H91.4288ZM96.2587 213.202V208.036H95.4584V213.202H96.2587ZM98.2213 207.953C97.9568 207.953 97.755 208.155 97.755 208.44C97.755 208.719 97.9568 208.921 98.2213 208.921C98.4858 208.921 98.6876 208.719 98.6876 208.44C98.6876 208.155 98.4858 207.953 98.2213 207.953ZM98.618 213.202V209.498H97.8246V213.202H98.618ZM102.042 212.353C101.826 212.457 101.652 212.513 101.485 212.513C101.235 212.513 101.089 212.395 101.089 212.012V210.236H102.181V209.638H101.089V208.621H100.295V209.638H99.7733V210.236H100.295V212.158C100.295 212.917 100.775 213.237 101.332 213.237C101.645 213.237 101.952 213.139 102.244 212.965L102.042 212.353ZM103.497 212.36C103.246 212.36 103.065 212.548 103.065 212.805C103.065 212.952 103.128 213.084 103.253 213.167L102.989 213.773H103.399L103.796 213.174C103.872 213.063 103.921 212.945 103.921 212.805C103.921 212.527 103.719 212.36 103.497 212.36ZM108.417 209.464C107.707 209.464 107.053 209.784 107.053 210.536C107.046 211.872 108.995 211.448 108.995 212.207C108.995 212.485 108.73 212.603 108.389 212.603C107.986 212.603 107.471 212.429 107.15 212.144L106.865 212.715C107.234 213.049 107.812 213.23 108.354 213.23C109.099 213.23 109.774 212.889 109.774 212.13C109.781 210.786 107.812 211.155 107.812 210.473C107.812 210.208 108.041 210.104 108.354 210.104C108.681 210.104 109.092 210.229 109.419 210.431L109.711 209.84C109.377 209.603 108.883 209.464 108.417 209.464ZM112.454 209.471C111.354 209.477 110.581 210.236 110.581 211.357C110.581 212.471 111.333 213.23 112.474 213.23C113.115 213.23 113.644 213 114.006 212.603L113.581 212.151C113.31 212.429 112.941 212.583 112.537 212.583C111.952 212.583 111.514 212.227 111.389 211.657H114.186C114.284 210.32 113.755 209.471 112.454 209.471ZM111.375 211.072C111.465 210.48 111.876 210.111 112.461 210.111C113.066 210.111 113.463 210.473 113.491 211.072H111.375ZM118.898 208.036H118.098V210.139C117.826 209.707 117.381 209.464 116.782 209.464C115.738 209.464 115.022 210.222 115.022 211.336C115.022 212.464 115.731 213.237 116.796 213.237C117.388 213.237 117.833 213 118.098 212.569V213.202H118.898V208.036ZM116.963 212.569C116.288 212.569 115.829 212.067 115.822 211.364C115.829 210.654 116.295 210.146 116.963 210.146C117.631 210.146 118.098 210.647 118.098 211.364C118.098 212.067 117.631 212.569 116.963 212.569ZM126.136 208.036H125.336V210.139C125.064 209.707 124.619 209.464 124.02 209.464C122.976 209.464 122.26 210.222 122.26 211.336C122.26 212.464 122.969 213.237 124.034 213.237C124.626 213.237 125.071 213 125.336 212.569V213.202H126.136V208.036ZM124.201 212.569C123.526 212.569 123.067 212.067 123.06 211.364C123.067 210.654 123.533 210.146 124.201 210.146C124.869 210.146 125.336 210.647 125.336 211.364C125.336 212.067 124.869 212.569 124.201 212.569ZM128.099 207.953C127.834 207.953 127.632 208.155 127.632 208.44C127.632 208.719 127.834 208.921 128.099 208.921C128.363 208.921 128.565 208.719 128.565 208.44C128.565 208.155 128.363 207.953 128.099 207.953ZM128.495 213.202V209.498H127.702V213.202H128.495ZM132.246 213.202H133.033L133.026 210.772C133.019 209.958 132.483 209.471 131.53 209.471C130.827 209.471 130.451 209.631 129.936 209.937L130.263 210.494C130.632 210.243 131.001 210.118 131.356 210.118C131.94 210.118 132.24 210.396 132.24 210.863V210.974H131.119C130.228 210.981 129.72 211.413 129.72 212.088C129.72 212.743 130.221 213.237 131.022 213.237C131.557 213.237 131.982 213.077 132.246 212.75V213.202ZM131.189 212.603C130.743 212.603 130.472 212.388 130.472 212.053C130.472 211.698 130.715 211.559 131.237 211.559H132.24V211.9C132.198 212.304 131.759 212.603 131.189 212.603ZM139.283 209.471C138.607 209.471 138.113 209.742 137.877 210.362C137.703 209.798 137.25 209.471 136.589 209.471C135.977 209.471 135.504 209.693 135.246 210.215V209.498H134.453V213.202H135.246V211.371C135.246 210.724 135.636 210.236 136.276 210.215C136.819 210.215 137.146 210.557 137.146 211.12V213.202H137.946V211.371C137.946 210.724 138.329 210.236 138.962 210.215C139.505 210.215 139.839 210.557 139.839 211.12V213.202H140.64V210.898C140.64 210.014 140.132 209.471 139.283 209.471ZM146.367 209.471C145.741 209.471 145.268 209.693 145.003 210.208V209.498H144.203V213.202H145.003V211.232C145.059 210.654 145.442 210.229 146.054 210.222C146.611 210.222 146.945 210.564 146.945 211.12V213.202H147.745V210.898C147.745 210.014 147.23 209.471 146.367 209.471ZM150.752 209.471C149.604 209.471 148.817 210.229 148.817 211.35C148.817 212.464 149.604 213.23 150.752 213.23C151.893 213.23 152.68 212.464 152.68 211.35C152.68 210.229 151.893 209.471 150.752 209.471ZM150.752 210.16C151.413 210.16 151.879 210.647 151.879 211.357C151.879 212.074 151.413 212.562 150.752 212.562C150.084 212.562 149.617 212.074 149.617 211.357C149.617 210.647 150.084 210.16 150.752 210.16ZM156.027 209.471C155.401 209.471 154.928 209.693 154.663 210.208V209.498H153.863V213.202H154.663V211.232C154.719 210.654 155.102 210.229 155.714 210.222C156.271 210.222 156.605 210.564 156.605 211.12V213.202H157.405V210.898C157.405 210.014 156.89 209.471 156.027 209.471ZM162.186 209.498H161.386V211.322C161.386 211.97 161.01 212.464 160.37 212.478C159.834 212.478 159.507 212.137 159.507 211.58V209.498H158.707V211.803C158.707 212.687 159.215 213.23 160.064 213.23C160.669 213.223 161.136 212.993 161.386 212.478V213.202H162.186V209.498ZM168.547 209.471C167.872 209.471 167.378 209.742 167.142 210.362C166.968 209.798 166.515 209.471 165.854 209.471C165.242 209.471 164.768 209.693 164.511 210.215V209.498H163.717V213.202H164.511V211.371C164.511 210.724 164.901 210.236 165.541 210.215C166.084 210.215 166.411 210.557 166.411 211.12V213.202H167.211V211.371C167.211 210.724 167.594 210.236 168.227 210.215C168.77 210.215 169.104 210.557 169.104 211.12V213.202H169.905V210.898C169.905 210.014 169.396 209.471 168.547 209.471ZM176.154 209.471C175.479 209.471 174.985 209.742 174.748 210.362C174.574 209.798 174.122 209.471 173.461 209.471C172.848 209.471 172.375 209.693 172.118 210.215V209.498H171.324V213.202H172.118V211.371C172.118 210.724 172.507 210.236 173.148 210.215C173.691 210.215 174.018 210.557 174.018 211.12V213.202H174.818V211.371C174.818 210.724 175.201 210.236 175.834 210.215C176.377 210.215 176.711 210.557 176.711 211.12V213.202H177.511V210.898C177.511 210.014 177.003 209.471 176.154 209.471ZM181.958 209.498H181.158L180.128 212.304L179.022 209.498H178.193L179.724 213.146L179.599 213.425C179.474 213.703 179.279 213.836 179.035 213.836C178.868 213.836 178.729 213.78 178.555 213.655L178.214 214.274C178.472 214.49 178.736 214.588 179.07 214.588C179.627 214.588 180.045 214.295 180.274 213.71L181.958 209.498ZM187.171 209.471C186.545 209.471 186.072 209.693 185.807 210.208V209.498H185.007V213.202H185.807V211.232C185.863 210.654 186.245 210.229 186.858 210.222C187.415 210.222 187.749 210.564 187.749 211.12V213.202H188.549V210.898C188.549 210.014 188.034 209.471 187.171 209.471ZM190.364 207.953C190.1 207.953 189.898 208.155 189.898 208.44C189.898 208.719 190.1 208.921 190.364 208.921C190.629 208.921 190.83 208.719 190.83 208.44C190.83 208.155 190.629 207.953 190.364 207.953ZM190.761 213.202V209.498H189.967V213.202H190.761ZM194.422 209.471C193.844 209.471 193.399 209.707 193.127 210.139V208.036H192.327V213.202H193.127V212.562C193.399 212.993 193.844 213.23 194.435 213.23C195.493 213.23 196.189 212.471 196.189 211.364C196.189 210.236 195.472 209.471 194.422 209.471ZM194.255 212.548C193.593 212.548 193.127 212.053 193.127 211.336C193.127 210.64 193.593 210.139 194.255 210.139C194.916 210.139 195.382 210.647 195.382 211.336C195.382 212.046 194.916 212.548 194.255 212.548ZM199.579 209.471C198.945 209.471 198.472 209.7 198.208 210.222V208.036H197.407V213.202H198.208V211.378C198.208 210.724 198.604 210.229 199.265 210.222C199.822 210.222 200.156 210.564 200.156 211.12V213.202H200.957V210.898C200.957 210.014 200.442 209.471 199.579 209.471Z" fill="#444445"/>
<path d="M59.71 217.825C58.6104 217.832 57.8379 218.591 57.8379 219.712C57.8379 220.825 58.5895 221.584 59.7309 221.584C60.3712 221.584 60.9001 221.355 61.262 220.958L60.8374 220.505C60.566 220.784 60.1972 220.937 59.7935 220.937C59.2089 220.937 58.7705 220.582 58.6452 220.011H61.4429C61.5404 218.674 61.0114 217.825 59.71 217.825ZM58.6313 219.426C58.7218 218.834 59.1324 218.465 59.717 218.465C60.3224 218.465 60.7191 218.827 60.747 219.426H58.6313ZM65.9875 217.853H65.1872V219.677C65.1872 220.324 64.8113 220.818 64.1711 220.832C63.6352 220.832 63.3081 220.491 63.3081 219.934V217.853H62.5077V220.157C62.5077 221.041 63.0158 221.584 63.8649 221.584C64.4703 221.577 64.9366 221.348 65.1872 220.832V221.556H65.9875V217.853ZM67.9153 216.307C67.6508 216.307 67.449 216.509 67.449 216.794C67.449 217.073 67.6508 217.275 67.9153 217.275C68.1798 217.275 68.3816 217.073 68.3816 216.794C68.3816 216.509 68.1798 216.307 67.9153 216.307ZM68.312 221.556V217.853H67.5186V221.556H68.312ZM70.9497 217.818C70.2398 217.818 69.5856 218.138 69.5856 218.89C69.5786 220.227 71.5273 219.802 71.5273 220.561C71.5273 220.839 71.2628 220.958 70.9218 220.958C70.5182 220.958 70.0032 220.784 69.683 220.498L69.3977 221.069C69.7665 221.403 70.3442 221.584 70.887 221.584C71.6317 221.584 72.3068 221.243 72.3068 220.484C72.3137 219.141 70.3442 219.51 70.3442 218.827C70.3442 218.563 70.5738 218.458 70.887 218.458C71.2141 218.458 71.6247 218.584 71.9518 218.786L72.2441 218.194C71.9101 217.957 71.4159 217.818 70.9497 217.818ZM78.292 217.825C77.6169 217.825 77.1228 218.096 76.8861 218.716C76.7121 218.152 76.2598 217.825 75.5986 217.825C74.9862 217.825 74.5129 218.048 74.2554 218.57V217.853H73.462V221.556H74.2554V219.725C74.2554 219.078 74.6452 218.591 75.2855 218.57C75.8283 218.57 76.1554 218.911 76.1554 219.475V221.556H76.9557V219.725C76.9557 219.078 77.3385 218.591 77.9718 218.57C78.5147 218.57 78.8487 218.911 78.8487 219.475V221.556H79.6491V219.252C79.6491 218.368 79.141 217.825 78.292 217.825ZM82.6556 217.825C81.5073 217.825 80.7208 218.584 80.7208 219.705C80.7208 220.818 81.5073 221.584 82.6556 221.584C83.797 221.584 84.5834 220.818 84.5834 219.705C84.5834 218.584 83.797 217.825 82.6556 217.825ZM82.6556 218.514C83.3168 218.514 83.783 219.001 83.783 219.712C83.783 220.429 83.3168 220.916 82.6556 220.916C81.9875 220.916 81.5212 220.429 81.5212 219.712C81.5212 219.001 81.9875 218.514 82.6556 218.514ZM89.295 216.391H88.4946V218.493C88.2232 218.062 87.7778 217.818 87.1793 217.818C86.1354 217.818 85.4185 218.577 85.4185 219.691C85.4185 220.818 86.1284 221.591 87.1932 221.591C87.7848 221.591 88.2302 221.355 88.4946 220.923V221.556H89.295V216.391ZM87.3602 220.923C86.6852 220.923 86.2258 220.422 86.2189 219.718C86.2258 219.008 86.6921 218.5 87.3602 218.5C88.0284 218.5 88.4946 219.001 88.4946 219.718C88.4946 220.422 88.0284 220.923 87.3602 220.923ZM94.8974 220.707C94.6817 220.812 94.5077 220.867 94.3407 220.867C94.0901 220.867 93.944 220.749 93.944 220.366V218.591H95.0366V217.992H93.944V216.975H93.1506V217.992H92.6286V218.591H93.1506V220.512C93.1506 221.271 93.6308 221.591 94.1875 221.591C94.5007 221.591 94.8069 221.494 95.0992 221.32L94.8974 220.707ZM96.583 216.307C96.3186 216.307 96.1167 216.509 96.1167 216.794C96.1167 217.073 96.3186 217.275 96.583 217.275C96.8475 217.275 97.0493 217.073 97.0493 216.794C97.0493 216.509 96.8475 216.307 96.583 216.307ZM96.9797 221.556V217.853H96.1863V221.556H96.9797ZM100.674 217.825C100.047 217.825 99.5742 218.048 99.3098 218.563V217.853H98.5094V221.556H99.3098V219.586C99.3654 219.008 99.7482 218.584 100.361 218.577C100.917 218.577 101.251 218.918 101.251 219.475V221.556H102.052V219.252C102.052 218.368 101.537 217.825 100.674 217.825ZM104.989 217.825C103.889 217.825 103.124 218.591 103.124 219.712C103.124 220.825 103.889 221.584 104.989 221.584C105.692 221.584 106.228 221.334 106.562 220.895L106.116 220.449C105.866 220.742 105.49 220.895 105.024 220.895C104.383 220.895 103.924 220.415 103.924 219.712C103.924 219.008 104.383 218.528 105.024 218.528C105.469 218.521 105.824 218.681 106.081 218.946L106.52 218.431C106.179 218.041 105.657 217.825 104.989 217.825ZM108.141 216.307C107.877 216.307 107.675 216.509 107.675 216.794C107.675 217.073 107.877 217.275 108.141 217.275C108.406 217.275 108.608 217.073 108.608 216.794C108.608 216.509 108.406 216.307 108.141 216.307ZM108.538 221.556V217.853H107.745V221.556H108.538ZM113.598 216.391H112.797V218.493C112.526 218.062 112.081 217.818 111.482 217.818C110.438 217.818 109.721 218.577 109.721 219.691C109.721 220.818 110.431 221.591 111.496 221.591C112.087 221.591 112.533 221.355 112.797 220.923V221.556H113.598V216.391ZM111.663 220.923C110.988 220.923 110.529 220.422 110.522 219.718C110.529 219.008 110.995 218.5 111.663 218.5C112.331 218.5 112.797 219.001 112.797 219.718C112.797 220.422 112.331 220.923 111.663 220.923ZM118.525 217.853H117.725V219.677C117.725 220.324 117.349 220.818 116.709 220.832C116.173 220.832 115.846 220.491 115.846 219.934V217.853H115.045V220.157C115.045 221.041 115.553 221.584 116.402 221.584C117.008 221.577 117.474 221.348 117.725 220.832V221.556H118.525V217.853ZM122.221 217.825C121.594 217.825 121.121 218.048 120.856 218.563V217.853H120.056V221.556H120.856V219.586C120.912 219.008 121.295 218.584 121.907 218.577C122.464 218.577 122.798 218.918 122.798 219.475V221.556H123.599V219.252C123.599 218.368 123.084 217.825 122.221 217.825ZM126.911 220.707C126.696 220.812 126.522 220.867 126.355 220.867C126.104 220.867 125.958 220.749 125.958 220.366V218.591H127.05V217.992H125.958V216.975H125.164V217.992H124.642V218.591H125.164V220.512C125.164 221.271 125.645 221.591 126.201 221.591C126.515 221.591 126.821 221.494 127.113 221.32L126.911 220.707ZM133.705 217.853H132.905V219.677C132.905 220.324 132.529 220.818 131.889 220.832C131.353 220.832 131.026 220.491 131.026 219.934V217.853H130.225V220.157C130.225 221.041 130.733 221.584 131.583 221.584C132.188 221.577 132.654 221.348 132.905 220.832V221.556H133.705V217.853ZM137.129 220.707C136.914 220.812 136.74 220.867 136.572 220.867C136.322 220.867 136.176 220.749 136.176 220.366V218.591H137.268V217.992H136.176V216.975H135.382V217.992H134.86V218.591H135.382V220.512C135.382 221.271 135.863 221.591 136.419 221.591C136.733 221.591 137.039 221.494 137.331 221.32L137.129 220.707ZM141.395 221.556V216.391H140.595V221.556H141.395ZM145.181 221.556H145.968L145.961 219.127C145.954 218.312 145.418 217.825 144.465 217.825C143.762 217.825 143.386 217.985 142.871 218.291L143.198 218.848C143.567 218.598 143.936 218.472 144.291 218.472C144.875 218.472 145.174 218.751 145.174 219.217V219.329H144.054C143.163 219.336 142.655 219.767 142.655 220.443C142.655 221.097 143.156 221.591 143.957 221.591C144.492 221.591 144.917 221.431 145.181 221.104V221.556ZM144.124 220.958C143.678 220.958 143.407 220.742 143.407 220.408C143.407 220.053 143.65 219.913 144.172 219.913H145.174V220.255C145.133 220.658 144.694 220.958 144.124 220.958ZM148.974 217.825C147.826 217.825 147.04 218.584 147.04 219.705C147.04 220.818 147.826 221.584 148.974 221.584C150.116 221.584 150.902 220.818 150.902 219.705C150.902 218.584 150.116 217.825 148.974 217.825ZM148.974 218.514C149.636 218.514 150.102 219.001 150.102 219.712C150.102 220.429 149.636 220.916 148.974 220.916C148.306 220.916 147.84 220.429 147.84 219.712C147.84 219.001 148.306 218.514 148.974 218.514ZM152.886 217.853H152.085V221.556H152.886V219.621C152.948 218.987 153.422 218.549 154.166 218.591V217.825C153.582 217.825 153.136 218.089 152.886 218.591V217.853ZM156.699 217.825C155.6 217.832 154.827 218.591 154.827 219.712C154.827 220.825 155.579 221.584 156.72 221.584C157.361 221.584 157.89 221.355 158.251 220.958L157.827 220.505C157.556 220.784 157.187 220.937 156.783 220.937C156.198 220.937 155.76 220.582 155.635 220.011H158.432C158.53 218.674 158.001 217.825 156.699 217.825ZM155.621 219.426C155.711 218.834 156.122 218.465 156.706 218.465C157.312 218.465 157.709 218.827 157.736 219.426H155.621ZM161.14 217.825C160.04 217.832 159.268 218.591 159.268 219.712C159.268 220.825 160.019 221.584 161.161 221.584C161.801 221.584 162.33 221.355 162.692 220.958L162.267 220.505C161.996 220.784 161.627 220.937 161.223 220.937C160.639 220.937 160.2 220.582 160.075 220.011H162.873C162.97 218.674 162.441 217.825 161.14 217.825ZM160.061 219.426C160.151 218.834 160.562 218.465 161.147 218.465C161.752 218.465 162.149 218.827 162.177 219.426H160.061ZM165.949 220.707C165.733 220.812 165.559 220.867 165.392 220.867C165.141 220.867 164.995 220.749 164.995 220.366V218.591H166.088V217.992H164.995V216.975H164.202V217.992H163.68V218.591H164.202V220.512C164.202 221.271 164.682 221.591 165.239 221.591C165.552 221.591 165.858 221.494 166.151 221.32L165.949 220.707ZM172.908 216.391H172.108V218.493C171.836 218.062 171.391 217.818 170.793 217.818C169.749 217.818 169.032 218.577 169.032 219.691C169.032 220.818 169.742 221.591 170.806 221.591C171.398 221.591 171.843 221.355 172.108 220.923V221.556H172.908V216.391ZM170.973 220.923C170.298 220.923 169.839 220.422 169.832 219.718C169.839 219.008 170.305 218.5 170.973 218.5C171.642 218.5 172.108 219.001 172.108 219.718C172.108 220.422 171.642 220.923 170.973 220.923ZM176.062 217.825C174.914 217.825 174.128 218.584 174.128 219.705C174.128 220.818 174.914 221.584 176.062 221.584C177.204 221.584 177.99 220.818 177.99 219.705C177.99 218.584 177.204 217.825 176.062 217.825ZM176.062 218.514C176.723 218.514 177.19 219.001 177.19 219.712C177.19 220.429 176.723 220.916 176.062 220.916C175.394 220.916 174.928 220.429 174.928 219.712C174.928 219.001 175.394 218.514 176.062 218.514ZM180.008 221.556V216.391H179.208V221.556H180.008ZM183.161 217.825C182.013 217.825 181.226 218.584 181.226 219.705C181.226 220.818 182.013 221.584 183.161 221.584C184.302 221.584 185.089 220.818 185.089 219.705C185.089 218.584 184.302 217.825 183.161 217.825ZM183.161 218.514C183.822 218.514 184.288 219.001 184.288 219.712C184.288 220.429 183.822 220.916 183.161 220.916C182.493 220.916 182.027 220.429 182.027 219.712C182.027 219.001 182.493 218.514 183.161 218.514ZM187.072 217.853H186.272V221.556H187.072V219.621C187.135 218.987 187.608 218.549 188.353 218.591V217.825C187.768 217.825 187.323 218.089 187.072 218.591V217.853ZM190.886 217.825C189.787 217.832 189.014 218.591 189.014 219.712C189.014 220.825 189.766 221.584 190.907 221.584C191.547 221.584 192.076 221.355 192.438 220.958L192.014 220.505C191.742 220.784 191.373 220.937 190.97 220.937C190.385 220.937 189.947 220.582 189.821 220.011H192.619C192.716 218.674 192.188 217.825 190.886 217.825ZM189.807 219.426C189.898 218.834 190.308 218.465 190.893 218.465C191.499 218.465 191.895 218.827 191.923 219.426H189.807Z" fill="#444445"/>
<path d="M74.6215 226.179C73.9465 226.179 73.4524 226.451 73.2157 227.07C73.0417 226.506 72.5894 226.179 71.9282 226.179C71.3158 226.179 70.8425 226.402 70.585 226.924V226.207H69.7916V229.911H70.585V228.08C70.585 227.432 70.9748 226.945 71.615 226.924C72.1579 226.924 72.485 227.265 72.485 227.829V229.911H73.2853V228.08C73.2853 227.432 73.6681 226.945 74.3014 226.924C74.8443 226.924 75.1783 227.265 75.1783 227.829V229.911H75.9787V227.606C75.9787 226.722 75.4706 226.179 74.6215 226.179ZM79.6171 229.911H80.4035L80.3966 227.481C80.3896 226.666 79.8537 226.179 78.9003 226.179C78.1974 226.179 77.8215 226.339 77.3065 226.646L77.6336 227.203C78.0025 226.952 78.3714 226.827 78.7263 226.827C79.3109 226.827 79.6101 227.105 79.6101 227.572V227.683H78.4897C77.5988 227.69 77.0908 228.122 77.0908 228.797C77.0908 229.451 77.5919 229.946 78.3922 229.946C78.9281 229.946 79.3526 229.785 79.6171 229.458V229.911ZM78.5593 229.312C78.1138 229.312 77.8424 229.096 77.8424 228.762C77.8424 228.407 78.086 228.268 78.608 228.268H79.6101V228.609C79.5684 229.013 79.1299 229.312 78.5593 229.312ZM85.1652 226.207H84.3719V226.806C84.1144 226.402 83.6898 226.172 83.1191 226.179C82.1378 226.186 81.4767 226.896 81.4767 227.941C81.4767 229.006 82.1448 229.73 83.147 229.73C83.7037 229.73 84.1213 229.507 84.3719 229.103V229.57C84.3719 230.21 83.9125 230.621 83.2096 230.621C82.7573 230.621 82.3953 230.475 82.0474 230.217L81.7064 230.795C82.1587 231.101 82.6668 231.282 83.2444 231.282C84.4067 231.282 85.1652 230.614 85.1652 229.549V226.207ZM83.3071 229.103C82.6668 229.103 82.2353 228.63 82.2283 227.961C82.2353 227.3 82.6737 226.827 83.3071 226.827C83.9334 226.827 84.3719 227.293 84.3719 227.961C84.3719 228.63 83.9334 229.103 83.3071 229.103ZM88.7912 226.179C88.1648 226.179 87.6916 226.402 87.4271 226.917V226.207H86.6267V229.911H87.4271V227.941C87.4828 227.363 87.8655 226.938 88.478 226.931C89.0347 226.931 89.3688 227.272 89.3688 227.829V229.911H90.1692V227.606C90.1692 226.722 89.6541 226.179 88.7912 226.179ZM93.809 229.911H94.5954L94.5885 227.481C94.5815 226.666 94.0456 226.179 93.0922 226.179C92.3892 226.179 92.0134 226.339 91.4984 226.646L91.8255 227.203C92.1944 226.952 92.5632 226.827 92.9182 226.827C93.5028 226.827 93.802 227.105 93.802 227.572V227.683H92.6815C91.7907 227.69 91.2827 228.122 91.2827 228.797C91.2827 229.451 91.7838 229.946 92.5841 229.946C93.12 229.946 93.5445 229.785 93.809 229.458V229.911ZM92.7511 229.312C92.3057 229.312 92.0343 229.096 92.0343 228.762C92.0343 228.407 92.2779 228.268 92.7999 228.268H93.802V228.609C93.7603 229.013 93.3218 229.312 92.7511 229.312ZM100.379 229.911H101.165L101.158 227.481C101.151 226.666 100.615 226.179 99.662 226.179C98.959 226.179 98.5832 226.339 98.0682 226.646L98.3953 227.203C98.7642 226.952 99.133 226.827 99.488 226.827C100.073 226.827 100.372 227.105 100.372 227.572V227.683H99.2513C98.3605 227.69 97.8525 228.122 97.8525 228.797C97.8525 229.451 98.3536 229.946 99.1539 229.946C99.6898 229.946 100.114 229.785 100.379 229.458V229.911ZM99.3209 229.312C98.8755 229.312 98.6041 229.096 98.6041 228.762C98.6041 228.407 98.8477 228.268 99.3697 228.268H100.372V228.609C100.33 229.013 99.8916 229.312 99.3209 229.312ZM103.42 229.911V224.745H102.62V229.911H103.42ZM105.383 224.661C105.118 224.661 104.916 224.863 104.916 225.149C104.916 225.427 105.118 225.629 105.383 225.629C105.647 225.629 105.849 225.427 105.849 225.149C105.849 224.863 105.647 224.661 105.383 224.661ZM105.779 229.911V226.207H104.986V229.911H105.779ZM110.839 226.207H110.039V226.847C109.767 226.416 109.322 226.172 108.723 226.172C107.679 226.172 106.963 226.931 106.963 228.045C106.963 229.173 107.672 229.946 108.737 229.946C109.329 229.946 109.774 229.709 110.039 229.277V231.261H110.839V226.207ZM108.904 229.277C108.229 229.277 107.77 228.776 107.763 228.073C107.77 227.363 108.236 226.854 108.904 226.854C109.572 226.854 110.039 227.356 110.039 228.073C110.039 228.776 109.572 229.277 108.904 229.277ZM115.766 226.207H114.966V228.031C114.966 228.678 114.59 229.173 113.95 229.187C113.414 229.187 113.087 228.846 113.087 228.289V226.207H112.287V228.511C112.287 229.396 112.795 229.939 113.644 229.939C114.249 229.932 114.715 229.702 114.966 229.187V229.911H115.766V226.207ZM119.518 229.911H120.304L120.297 227.481C120.29 226.666 119.754 226.179 118.801 226.179C118.098 226.179 117.722 226.339 117.207 226.646L117.534 227.203C117.903 226.952 118.272 226.827 118.627 226.827C119.211 226.827 119.511 227.105 119.511 227.572V227.683H118.39C117.499 227.69 116.991 228.122 116.991 228.797C116.991 229.451 117.492 229.946 118.293 229.946C118.829 229.946 119.253 229.785 119.518 229.458V229.911ZM118.46 229.312C118.014 229.312 117.743 229.096 117.743 228.762C117.743 228.407 117.986 228.268 118.508 228.268H119.511V228.609C119.469 229.013 119.03 229.312 118.46 229.312ZM126.555 226.179C125.88 226.179 125.386 226.451 125.149 227.07C124.975 226.506 124.523 226.179 123.862 226.179C123.249 226.179 122.776 226.402 122.518 226.924V226.207H121.725V229.911H122.518V228.08C122.518 227.432 122.908 226.945 123.548 226.924C124.091 226.924 124.418 227.265 124.418 227.829V229.911H125.219V228.08C125.219 227.432 125.602 226.945 126.235 226.924C126.778 226.924 127.112 227.265 127.112 227.829V229.911H127.912V227.606C127.912 226.722 127.404 226.179 126.555 226.179ZM133 226.179C131.9 226.186 131.127 226.945 131.127 228.066C131.127 229.18 131.879 229.939 133.02 229.939C133.661 229.939 134.19 229.709 134.551 229.312L134.127 228.86C133.856 229.138 133.487 229.291 133.083 229.291C132.498 229.291 132.06 228.936 131.935 228.365H134.732C134.83 227.028 134.301 226.179 133 226.179ZM131.921 227.78C132.011 227.189 132.422 226.82 133.006 226.82C133.612 226.82 134.009 227.182 134.036 227.78H131.921ZM136.715 226.207H135.914V229.911H136.715V227.975C136.777 227.342 137.25 226.903 137.995 226.945V226.179C137.41 226.179 136.965 226.444 136.715 226.945V226.207ZM141.08 229.911H141.866L141.859 227.481C141.852 226.666 141.316 226.179 140.363 226.179C139.66 226.179 139.284 226.339 138.769 226.646L139.096 227.203C139.465 226.952 139.834 226.827 140.189 226.827C140.773 226.827 141.073 227.105 141.073 227.572V227.683H139.952C139.061 227.69 138.553 228.122 138.553 228.797C138.553 229.451 139.054 229.946 139.855 229.946C140.391 229.946 140.815 229.785 141.08 229.458V229.911ZM140.022 229.312C139.576 229.312 139.305 229.096 139.305 228.762C139.305 228.407 139.548 228.268 140.07 228.268H141.073V228.609C141.031 229.013 140.592 229.312 140.022 229.312ZM145.179 229.061C144.963 229.166 144.789 229.221 144.622 229.221C144.371 229.221 144.225 229.103 144.225 228.72V226.945H145.318V226.346H144.225V225.33H143.432V226.346H142.91V226.945H143.432V228.866C143.432 229.625 143.912 229.946 144.469 229.946C144.782 229.946 145.088 229.848 145.381 229.674L145.179 229.061ZM150.287 229.911L151.707 226.207H150.906L149.89 229.124L148.86 226.207H148.025L149.459 229.911H150.287ZM154.059 226.179C152.911 226.179 152.124 226.938 152.124 228.059C152.124 229.173 152.911 229.939 154.059 229.939C155.2 229.939 155.987 229.173 155.987 228.059C155.987 226.938 155.2 226.179 154.059 226.179ZM154.059 226.868C154.72 226.868 155.187 227.356 155.187 228.066C155.187 228.783 154.72 229.27 154.059 229.27C153.391 229.27 152.925 228.783 152.925 228.066C152.925 227.356 153.391 226.868 154.059 226.868ZM158.005 229.911V224.745H157.205V229.911H158.005ZM162.932 226.207H162.132V228.031C162.132 228.678 161.756 229.173 161.116 229.187C160.58 229.187 160.253 228.846 160.253 228.289V226.207H159.453V228.511C159.453 229.396 159.961 229.939 160.81 229.939C161.415 229.932 161.882 229.702 162.132 229.187V229.911H162.932V226.207ZM166.357 229.061C166.141 229.166 165.967 229.221 165.8 229.221C165.549 229.221 165.403 229.103 165.403 228.72V226.945H166.496V226.346H165.403V225.33H164.61V226.346H164.088V226.945H164.61V228.866C164.61 229.625 165.09 229.946 165.647 229.946C165.96 229.946 166.266 229.848 166.558 229.674L166.357 229.061ZM169.774 226.179C169.196 226.179 168.751 226.416 168.479 226.847V226.207H167.679V231.261H168.479V229.27C168.751 229.702 169.196 229.939 169.788 229.939C170.845 229.939 171.541 229.18 171.541 228.073C171.541 226.945 170.825 226.179 169.774 226.179ZM169.607 229.256C168.946 229.256 168.479 228.762 168.479 228.045C168.479 227.349 168.946 226.847 169.607 226.847C170.268 226.847 170.734 227.356 170.734 228.045C170.734 228.755 170.268 229.256 169.607 229.256ZM174.945 229.911H175.731L175.724 227.481C175.717 226.666 175.181 226.179 174.228 226.179C173.525 226.179 173.149 226.339 172.634 226.646L172.961 227.203C173.33 226.952 173.699 226.827 174.054 226.827C174.638 226.827 174.938 227.105 174.938 227.572V227.683H173.817C172.926 227.69 172.418 228.122 172.418 228.797C172.418 229.451 172.919 229.946 173.72 229.946C174.256 229.946 174.68 229.785 174.945 229.458V229.911ZM173.887 229.312C173.441 229.312 173.17 229.096 173.17 228.762C173.17 228.407 173.414 228.268 173.936 228.268H174.938V228.609C174.896 229.013 174.457 229.312 173.887 229.312ZM179.044 229.061C178.828 229.166 178.654 229.221 178.487 229.221C178.237 229.221 178.09 229.103 178.09 228.72V226.945H179.183V226.346H178.09V225.33H177.297V226.346H176.775V226.945H177.297V228.866C177.297 229.625 177.777 229.946 178.334 229.946C178.647 229.946 178.953 229.848 179.246 229.674L179.044 229.061ZM180.5 229.054C180.249 229.054 180.061 229.242 180.061 229.507C180.061 229.778 180.249 229.973 180.5 229.973C180.75 229.973 180.938 229.778 180.938 229.507C180.938 229.242 180.75 229.054 180.5 229.054Z" fill="#444445"/>
<path d="M299.925 34.974V28.1513H298.776V31.1143H295.161V28.1513H294.011V34.974H295.161V32.1474H298.776V34.974H299.925ZM304.768 28.122C302.732 28.122 301.153 29.6035 301.153 31.5626C301.153 33.512 302.732 35.0227 304.768 35.0227C306.804 35.0227 308.383 33.512 308.383 31.5626C308.383 29.6133 306.804 28.122 304.768 28.122ZM304.778 29.1552C306.112 29.1552 307.204 30.2078 307.204 31.5626C307.204 32.9174 306.112 33.9896 304.778 33.9896C303.443 33.9896 302.322 32.9174 302.322 31.5626C302.322 30.2078 303.433 29.1552 304.778 29.1552ZM316.82 34.974V28.1513H315.466L313.225 32.6835L310.974 28.1513H309.61V34.974H310.692V29.8764L312.845 34.2625H313.595L315.749 29.8764L315.758 34.974H316.82ZM323.495 29.1844V28.1513H318.623V34.974H323.612V33.9408H319.773V32.0597H323.105V31.0266H319.773V29.1844H323.495Z" fill="#5E489A"/>
<path d="M360.791 34.974V28.1513H359.641V34.974H360.791ZM364.825 28.1026C363.344 28.1026 362.34 28.8336 362.34 30.0032C362.34 32.4301 366.023 31.5821 366.023 33.1026C366.023 33.6289 365.546 33.9311 364.747 33.9311C364.016 33.9311 363.139 33.5802 362.437 32.9369L361.941 33.9311C362.642 34.5744 363.655 35.013 364.727 35.013C366.228 35.013 367.299 34.2625 367.299 33.0441C367.309 30.588 363.626 31.3872 363.626 29.896C363.626 29.4379 364.065 29.1844 364.737 29.1844C365.253 29.1844 365.994 29.3696 366.734 29.818L367.212 28.8043C366.578 28.3852 365.711 28.1026 364.825 28.1026ZM370.885 28.1026C369.404 28.1026 368.4 28.8336 368.4 30.0032C368.4 32.4301 372.083 31.5821 372.083 33.1026C372.083 33.6289 371.606 33.9311 370.807 33.9311C370.076 33.9311 369.199 33.5802 368.498 32.9369L368.001 33.9311C368.702 34.5744 369.716 35.013 370.787 35.013C372.288 35.013 373.36 34.2625 373.36 33.0441C373.37 30.588 369.687 31.3872 369.687 29.896C369.687 29.4379 370.125 29.1844 370.797 29.1844C371.314 29.1844 372.054 29.3696 372.795 29.818L373.272 28.8043C372.639 28.3852 371.772 28.1026 370.885 28.1026ZM380.502 28.1513H379.352V32.1474C379.352 33.3073 378.66 33.9896 377.549 33.9896C376.429 33.9896 375.718 33.2976 375.718 32.1474V28.1513H374.568V32.1474C374.568 33.9311 375.698 35.0227 377.54 35.0227C379.381 35.0227 380.502 33.9311 380.502 32.1474V28.1513Z" fill="#5E489A"/>
<path d="M387.02 29.1844V28.1513H382.148V34.974H387.137V33.9408H383.298V32.0597H386.63V31.0266H383.298V29.1844H387.02ZM390.781 28.1026C389.3 28.1026 388.296 28.8336 388.296 30.0032C388.296 32.4301 391.979 31.5821 391.979 33.1026C391.979 33.6289 391.502 33.9311 390.703 33.9311C389.972 33.9311 389.095 33.5802 388.394 32.9369L387.897 33.9311C388.598 34.5744 389.612 35.013 390.683 35.013C392.184 35.013 393.256 34.2625 393.256 33.0441C393.265 30.588 389.582 31.3872 389.582 29.896C389.582 29.4379 390.021 29.1844 390.693 29.1844C391.209 29.1844 391.95 29.3696 392.691 29.818L393.168 28.8043C392.535 28.3852 391.667 28.1026 390.781 28.1026Z" fill="#5E489A"/>
<path d="M433.802 34.974V28.1513H432.652V34.974H433.802ZM441.509 34.974V28.1513H440.379V33.0539L436.725 28.1513H435.595V34.974H436.744V30.0811L440.379 34.974H441.509ZM447.881 29.1844L447.891 28.1513H443.311V34.974H444.461V32.1767H447.559V31.1533H444.461V29.1844H447.881ZM451.963 28.122C449.927 28.122 448.349 29.6035 448.349 31.5626C448.349 33.512 449.927 35.0227 451.963 35.0227C454 35.0227 455.578 33.512 455.578 31.5626C455.578 29.6133 454 28.122 451.963 28.122ZM451.973 29.1552C453.308 29.1552 454.399 30.2078 454.399 31.5626C454.399 32.9174 453.308 33.9896 451.973 33.9896C450.638 33.9896 449.518 32.9174 449.518 31.5626C449.518 30.2078 450.629 29.1552 451.973 29.1552Z" fill="#5E489A"/>
<path d="M492.021 28.122C490.004 28.122 488.436 29.6133 488.436 31.5529C488.436 33.512 489.985 35.0227 491.982 35.0227C492.947 35.0227 493.931 34.5841 494.623 33.9018L493.941 33.1416C493.424 33.6387 492.723 33.9506 492.041 33.9506C490.677 33.9506 489.605 32.8882 489.605 31.5431C489.605 30.1981 490.677 29.1454 492.041 29.1454C492.732 29.1454 493.444 29.4768 493.941 30.0129L494.613 29.1747C493.95 28.5216 492.986 28.122 492.021 28.122ZM498.695 28.122C496.659 28.122 495.08 29.6035 495.08 31.5626C495.08 33.512 496.659 35.0227 498.695 35.0227C500.732 35.0227 502.31 33.512 502.31 31.5626C502.31 29.6133 500.732 28.122 498.695 28.122ZM498.705 29.1552C500.04 29.1552 501.131 30.2078 501.131 31.5626C501.131 32.9174 500.04 33.9896 498.705 33.9896C497.37 33.9896 496.25 32.9174 496.25 31.5626C496.25 30.2078 497.36 29.1552 498.705 29.1552ZM509.452 34.974V28.1513H508.322V33.0539L504.668 28.1513H503.538V34.974H504.687V30.0811L508.322 34.974H509.452ZM515.912 29.1844V28.1513H510.446V29.1844H512.599V34.974H513.749V29.1844H515.912ZM520.628 33.434L521.28 34.974H522.508L519.527 28.1513H518.348L515.337 34.974H516.535L517.188 33.434H520.628ZM520.189 32.4106H517.617L518.903 29.3794L520.189 32.4106ZM526.259 28.122C524.242 28.122 522.674 29.6133 522.674 31.5529C522.674 33.512 524.223 35.0227 526.22 35.0227C527.185 35.0227 528.169 34.5841 528.861 33.9018L528.179 33.1416C527.662 33.6387 526.961 33.9506 526.279 33.9506C524.915 33.9506 523.843 32.8882 523.843 31.5431C523.843 30.1981 524.915 29.1454 526.279 29.1454C526.97 29.1454 527.682 29.4768 528.179 30.0129L528.851 29.1747C528.188 28.5216 527.224 28.122 526.259 28.122ZM534.687 29.1844V28.1513H529.221V29.1844H531.374V34.974H532.524V29.1844H534.687Z" fill="#FEFEFE"/>
</g>
<defs>
<clipPath id="clip0_24_1357">
<rect width="570" height="365" fill="white"/>
</clipPath>
</defs>
</svg>
